<mxfile host="app.diagrams.net" agent="Mozilla/5.0 (X11; Linux x86_64) AppleWebKit/537.36 (KHTML, like Gecko) Chrome/130.0.0.0 Safari/537.36 Edg/130.0.0.0" version="24.8.3">
  <diagram name="PÃ¡gina-1" id="ty8oQQZyWkyzLozmGAsy">
    <mxGraphModel dx="792" dy="427" grid="1" gridSize="10" guides="1" tooltips="1" connect="1" arrows="1" fold="1" page="1" pageScale="1" pageWidth="827" pageHeight="1169" math="0" shadow="0">
      <root>
        <mxCell id="0" />
        <mxCell id="1" parent="0" />
        <mxCell id="9Nv_gBv1O7w1vaAWKcTw-1" value="AWS Account" style="points=[[0,0],[0.25,0],[0.5,0],[0.75,0],[1,0],[1,0.25],[1,0.5],[1,0.75],[1,1],[0.75,1],[0.5,1],[0.25,1],[0,1],[0,0.75],[0,0.5],[0,0.25]];outlineConnect=0;gradientColor=none;html=1;whiteSpace=wrap;fontSize=12;fontStyle=0;container=1;pointerEvents=0;collapsible=0;recursiveResize=0;shape=mxgraph.aws4.group;grIcon=mxgraph.aws4.group_account;strokeColor=#CD2264;fillColor=none;verticalAlign=top;align=left;spacingLeft=30;fontColor=#CD2264;dashed=0;" parent="1" vertex="1">
          <mxGeometry x="40" y="160" width="720" height="800" as="geometry" />
        </mxCell>
        <mxCell id="9Nv_gBv1O7w1vaAWKcTw-2" value="&lt;font color=&quot;#000000&quot;&gt;VPC - 10.0.0.0/16&lt;/font&gt;" style="points=[[0,0],[0.25,0],[0.5,0],[0.75,0],[1,0],[1,0.25],[1,0.5],[1,0.75],[1,1],[0.75,1],[0.5,1],[0.25,1],[0,1],[0,0.75],[0,0.5],[0,0.25]];outlineConnect=0;gradientColor=none;html=1;whiteSpace=wrap;fontSize=12;fontStyle=0;container=1;pointerEvents=0;collapsible=0;recursiveResize=0;shape=mxgraph.aws4.group;grIcon=mxgraph.aws4.group_vpc2;strokeColor=#8C4FFF;fillColor=none;verticalAlign=top;align=left;spacingLeft=30;fontColor=#AAB7B8;dashed=0;" parent="9Nv_gBv1O7w1vaAWKcTw-1" vertex="1">
          <mxGeometry x="40" y="120" width="520" height="640" as="geometry" />
        </mxCell>
        <mxCell id="9Nv_gBv1O7w1vaAWKcTw-22" value="Private subnet" style="points=[[0,0],[0.25,0],[0.5,0],[0.75,0],[1,0],[1,0.25],[1,0.5],[1,0.75],[1,1],[0.75,1],[0.5,1],[0.25,1],[0,1],[0,0.75],[0,0.5],[0,0.25]];outlineConnect=0;gradientColor=none;html=1;whiteSpace=wrap;fontSize=12;fontStyle=0;container=1;pointerEvents=0;collapsible=0;recursiveResize=0;shape=mxgraph.aws4.group;grIcon=mxgraph.aws4.group_security_group;grStroke=0;strokeColor=#00A4A6;fillColor=#E6F6F7;verticalAlign=top;align=left;spacingLeft=30;fontColor=#147EBA;dashed=0;" parent="9Nv_gBv1O7w1vaAWKcTw-2" vertex="1">
          <mxGeometry x="360" y="440" width="124.99000000000001" height="160" as="geometry" />
        </mxCell>
        <mxCell id="9Nv_gBv1O7w1vaAWKcTw-26" value="" style="sketch=0;outlineConnect=0;fontColor=#232F3E;gradientColor=none;fillColor=#C925D1;strokeColor=none;dashed=0;verticalLabelPosition=bottom;verticalAlign=top;align=center;html=1;fontSize=12;fontStyle=0;aspect=fixed;pointerEvents=1;shape=mxgraph.aws4.rds_instance;" parent="9Nv_gBv1O7w1vaAWKcTw-22" vertex="1">
          <mxGeometry x="35.5" y="35.5" width="49" height="49" as="geometry" />
        </mxCell>
        <mxCell id="Adose-PHV-qRc2NY3zOG-12" value="CIDR = 10.0.1.0/24" style="text;html=1;align=center;verticalAlign=middle;resizable=0;points=[];autosize=1;strokeColor=none;fillColor=none;" vertex="1" parent="9Nv_gBv1O7w1vaAWKcTw-22">
          <mxGeometry x="-2.509999999999991" y="130" width="130" height="30" as="geometry" />
        </mxCell>
        <mxCell id="9Nv_gBv1O7w1vaAWKcTw-20" value="Private subnet" style="points=[[0,0],[0.25,0],[0.5,0],[0.75,0],[1,0],[1,0.25],[1,0.5],[1,0.75],[1,1],[0.75,1],[0.5,1],[0.25,1],[0,1],[0,0.75],[0,0.5],[0,0.25]];outlineConnect=0;gradientColor=none;html=1;whiteSpace=wrap;fontSize=12;fontStyle=0;container=1;pointerEvents=0;collapsible=0;recursiveResize=0;shape=mxgraph.aws4.group;grIcon=mxgraph.aws4.group_security_group;grStroke=0;strokeColor=#00A4A6;fillColor=#E6F6F7;verticalAlign=top;align=left;spacingLeft=30;fontColor=#147EBA;dashed=0;" parent="9Nv_gBv1O7w1vaAWKcTw-2" vertex="1">
          <mxGeometry x="200" y="440" width="127.5" height="160" as="geometry" />
        </mxCell>
        <mxCell id="9Nv_gBv1O7w1vaAWKcTw-25" value="" style="sketch=0;outlineConnect=0;fontColor=#232F3E;gradientColor=none;fillColor=#C925D1;strokeColor=none;dashed=0;verticalLabelPosition=bottom;verticalAlign=top;align=center;html=1;fontSize=12;fontStyle=0;aspect=fixed;pointerEvents=1;shape=mxgraph.aws4.rds_instance;" parent="9Nv_gBv1O7w1vaAWKcTw-20" vertex="1">
          <mxGeometry x="33.44" y="35.5" width="49" height="49" as="geometry" />
        </mxCell>
        <mxCell id="Adose-PHV-qRc2NY3zOG-11" value="CIDR = 10.0.8.0/24" style="text;html=1;align=center;verticalAlign=middle;resizable=0;points=[];autosize=1;strokeColor=none;fillColor=none;" vertex="1" parent="9Nv_gBv1O7w1vaAWKcTw-20">
          <mxGeometry x="-2.5" y="130" width="130" height="30" as="geometry" />
        </mxCell>
        <mxCell id="9Nv_gBv1O7w1vaAWKcTw-18" value="Private subnet" style="points=[[0,0],[0.25,0],[0.5,0],[0.75,0],[1,0],[1,0.25],[1,0.5],[1,0.75],[1,1],[0.75,1],[0.5,1],[0.25,1],[0,1],[0,0.75],[0,0.5],[0,0.25]];outlineConnect=0;gradientColor=none;html=1;whiteSpace=wrap;fontSize=12;fontStyle=0;container=1;pointerEvents=0;collapsible=0;recursiveResize=0;shape=mxgraph.aws4.group;grIcon=mxgraph.aws4.group_security_group;grStroke=0;strokeColor=#00A4A6;fillColor=#E6F6F7;verticalAlign=top;align=left;spacingLeft=30;fontColor=#147EBA;dashed=0;" parent="9Nv_gBv1O7w1vaAWKcTw-2" vertex="1">
          <mxGeometry x="40" y="440" width="128.23000000000002" height="160" as="geometry" />
        </mxCell>
        <mxCell id="9Nv_gBv1O7w1vaAWKcTw-24" value="" style="sketch=0;outlineConnect=0;fontColor=#232F3E;gradientColor=none;fillColor=#C925D1;strokeColor=none;dashed=0;verticalLabelPosition=bottom;verticalAlign=top;align=center;html=1;fontSize=12;fontStyle=0;aspect=fixed;pointerEvents=1;shape=mxgraph.aws4.rds_instance;" parent="9Nv_gBv1O7w1vaAWKcTw-18" vertex="1">
          <mxGeometry x="35.5" y="35.5" width="49" height="49" as="geometry" />
        </mxCell>
        <mxCell id="Adose-PHV-qRc2NY3zOG-10" value="CIDR = 10.0.7.0/24" style="text;html=1;align=center;verticalAlign=middle;resizable=0;points=[];autosize=1;strokeColor=none;fillColor=none;" vertex="1" parent="9Nv_gBv1O7w1vaAWKcTw-18">
          <mxGeometry x="-1.769999999999992" y="130" width="130" height="30" as="geometry" />
        </mxCell>
        <mxCell id="9Nv_gBv1O7w1vaAWKcTw-50" value="" style="rounded=1;arcSize=10;dashed=1;strokeColor=#ff0000;fillColor=none;gradientColor=none;dashPattern=8 4;strokeWidth=2;" parent="9Nv_gBv1O7w1vaAWKcTw-2" vertex="1">
          <mxGeometry x="70.00000000000001" y="470" width="380" height="60" as="geometry" />
        </mxCell>
        <mxCell id="9Nv_gBv1O7w1vaAWKcTw-14" value="Private subnet" style="points=[[0,0],[0.25,0],[0.5,0],[0.75,0],[1,0],[1,0.25],[1,0.5],[1,0.75],[1,1],[0.75,1],[0.5,1],[0.25,1],[0,1],[0,0.75],[0,0.5],[0,0.25]];outlineConnect=0;gradientColor=none;html=1;whiteSpace=wrap;fontSize=12;fontStyle=0;container=1;pointerEvents=0;collapsible=0;recursiveResize=0;shape=mxgraph.aws4.group;grIcon=mxgraph.aws4.group_security_group;grStroke=0;strokeColor=#00A4A6;fillColor=#E6F6F7;verticalAlign=top;align=left;spacingLeft=30;fontColor=#147EBA;dashed=0;" parent="9Nv_gBv1O7w1vaAWKcTw-2" vertex="1">
          <mxGeometry x="360" y="240" width="127.50000000000001" height="160" as="geometry" />
        </mxCell>
        <mxCell id="Adose-PHV-qRc2NY3zOG-9" value="CIDR = 10.0.6.0/24" style="text;html=1;align=center;verticalAlign=middle;resizable=0;points=[];autosize=1;strokeColor=none;fillColor=none;" vertex="1" parent="9Nv_gBv1O7w1vaAWKcTw-14">
          <mxGeometry x="-2.499999999999991" y="130" width="130" height="30" as="geometry" />
        </mxCell>
        <mxCell id="9Nv_gBv1O7w1vaAWKcTw-13" value="Private subnet" style="points=[[0,0],[0.25,0],[0.5,0],[0.75,0],[1,0],[1,0.25],[1,0.5],[1,0.75],[1,1],[0.75,1],[0.5,1],[0.25,1],[0,1],[0,0.75],[0,0.5],[0,0.25]];outlineConnect=0;gradientColor=none;html=1;whiteSpace=wrap;fontSize=12;fontStyle=0;container=1;pointerEvents=0;collapsible=0;recursiveResize=0;shape=mxgraph.aws4.group;grIcon=mxgraph.aws4.group_security_group;grStroke=0;strokeColor=#00A4A6;fillColor=#E6F6F7;verticalAlign=top;align=left;spacingLeft=30;fontColor=#147EBA;dashed=0;" parent="9Nv_gBv1O7w1vaAWKcTw-2" vertex="1">
          <mxGeometry x="200" y="240" width="127.5" height="160" as="geometry" />
        </mxCell>
        <mxCell id="Adose-PHV-qRc2NY3zOG-8" value="CIDR = 10.0.5.0/24" style="text;html=1;align=center;verticalAlign=middle;resizable=0;points=[];autosize=1;strokeColor=none;fillColor=none;" vertex="1" parent="9Nv_gBv1O7w1vaAWKcTw-13">
          <mxGeometry x="-2.5" y="130" width="130" height="30" as="geometry" />
        </mxCell>
        <mxCell id="9Nv_gBv1O7w1vaAWKcTw-10" value="Private subnet" style="points=[[0,0],[0.25,0],[0.5,0],[0.75,0],[1,0],[1,0.25],[1,0.5],[1,0.75],[1,1],[0.75,1],[0.5,1],[0.25,1],[0,1],[0,0.75],[0,0.5],[0,0.25]];outlineConnect=0;gradientColor=none;html=1;whiteSpace=wrap;fontSize=12;fontStyle=0;container=1;pointerEvents=0;collapsible=0;recursiveResize=0;shape=mxgraph.aws4.group;grIcon=mxgraph.aws4.group_security_group;grStroke=0;strokeColor=#00A4A6;fillColor=#E6F6F7;verticalAlign=top;align=left;spacingLeft=30;fontColor=#147EBA;dashed=0;" parent="9Nv_gBv1O7w1vaAWKcTw-2" vertex="1">
          <mxGeometry x="40" y="240" width="126.46000000000001" height="160" as="geometry" />
        </mxCell>
        <mxCell id="Adose-PHV-qRc2NY3zOG-7" value="CIDR = 10.0.4.0/24" style="text;html=1;align=center;verticalAlign=middle;resizable=0;points=[];autosize=1;strokeColor=none;fillColor=none;" vertex="1" parent="9Nv_gBv1O7w1vaAWKcTw-10">
          <mxGeometry x="-3.5399999999999934" y="130" width="130" height="30" as="geometry" />
        </mxCell>
        <mxCell id="9Nv_gBv1O7w1vaAWKcTw-27" value="" style="rounded=1;arcSize=10;dashed=1;fillColor=none;gradientColor=none;dashPattern=8 3 1 3;strokeWidth=2;" parent="9Nv_gBv1O7w1vaAWKcTw-2" vertex="1">
          <mxGeometry x="70" y="280" width="380" height="60" as="geometry" />
        </mxCell>
        <mxCell id="9Nv_gBv1O7w1vaAWKcTw-5" value="Public subnet" style="points=[[0,0],[0.25,0],[0.5,0],[0.75,0],[1,0],[1,0.25],[1,0.5],[1,0.75],[1,1],[0.75,1],[0.5,1],[0.25,1],[0,1],[0,0.75],[0,0.5],[0,0.25]];outlineConnect=0;gradientColor=none;html=1;whiteSpace=wrap;fontSize=12;fontStyle=0;container=1;pointerEvents=0;collapsible=0;recursiveResize=0;shape=mxgraph.aws4.group;grIcon=mxgraph.aws4.group_security_group;grStroke=0;strokeColor=#7AA116;fillColor=#F2F6E8;verticalAlign=top;align=left;spacingLeft=30;fontColor=#248814;dashed=0;" parent="9Nv_gBv1O7w1vaAWKcTw-2" vertex="1">
          <mxGeometry x="40" y="40" width="125" height="160" as="geometry" />
        </mxCell>
        <mxCell id="9Nv_gBv1O7w1vaAWKcTw-4" value="Nat&amp;nbsp;&lt;div&gt;Gatway&lt;/div&gt;" style="sketch=0;outlineConnect=0;fontColor=#232F3E;gradientColor=none;fillColor=#8C4FFF;strokeColor=none;dashed=0;verticalLabelPosition=bottom;verticalAlign=top;align=center;html=1;fontSize=12;fontStyle=0;aspect=fixed;pointerEvents=1;shape=mxgraph.aws4.nat_gateway;" parent="9Nv_gBv1O7w1vaAWKcTw-5" vertex="1">
          <mxGeometry x="10" y="40" width="40" height="40" as="geometry" />
        </mxCell>
        <mxCell id="9Nv_gBv1O7w1vaAWKcTw-32" value="LB" style="outlineConnect=0;dashed=0;verticalLabelPosition=bottom;verticalAlign=top;align=center;html=1;shape=mxgraph.aws3.application_load_balancer;fillColor=#F58534;gradientColor=none;" parent="9Nv_gBv1O7w1vaAWKcTw-5" vertex="1">
          <mxGeometry x="70" y="38.5" width="40" height="43" as="geometry" />
        </mxCell>
        <mxCell id="Adose-PHV-qRc2NY3zOG-4" value="CIDR = 10.0.1.0/24" style="text;html=1;align=center;verticalAlign=middle;resizable=0;points=[];autosize=1;strokeColor=none;fillColor=none;" vertex="1" parent="9Nv_gBv1O7w1vaAWKcTw-5">
          <mxGeometry x="-2.5" y="130" width="130" height="30" as="geometry" />
        </mxCell>
        <mxCell id="9Nv_gBv1O7w1vaAWKcTw-6" value="Public subnet" style="points=[[0,0],[0.25,0],[0.5,0],[0.75,0],[1,0],[1,0.25],[1,0.5],[1,0.75],[1,1],[0.75,1],[0.5,1],[0.25,1],[0,1],[0,0.75],[0,0.5],[0,0.25]];outlineConnect=0;gradientColor=none;html=1;whiteSpace=wrap;fontSize=12;fontStyle=0;container=1;pointerEvents=0;collapsible=0;recursiveResize=0;shape=mxgraph.aws4.group;grIcon=mxgraph.aws4.group_security_group;grStroke=0;strokeColor=#7AA116;fillColor=#F2F6E8;verticalAlign=top;align=left;spacingLeft=30;fontColor=#248814;dashed=0;" parent="9Nv_gBv1O7w1vaAWKcTw-2" vertex="1">
          <mxGeometry x="200" y="40" width="127.5" height="160" as="geometry" />
        </mxCell>
        <mxCell id="9Nv_gBv1O7w1vaAWKcTw-8" value="Nat&amp;nbsp;&lt;div&gt;Gatway&lt;/div&gt;" style="sketch=0;outlineConnect=0;fontColor=#232F3E;gradientColor=none;fillColor=#8C4FFF;strokeColor=none;dashed=0;verticalLabelPosition=bottom;verticalAlign=top;align=center;html=1;fontSize=12;fontStyle=0;aspect=fixed;pointerEvents=1;shape=mxgraph.aws4.nat_gateway;" parent="9Nv_gBv1O7w1vaAWKcTw-6" vertex="1">
          <mxGeometry x="10" y="40" width="40" height="40" as="geometry" />
        </mxCell>
        <mxCell id="9Nv_gBv1O7w1vaAWKcTw-33" value="LB" style="outlineConnect=0;dashed=0;verticalLabelPosition=bottom;verticalAlign=top;align=center;html=1;shape=mxgraph.aws3.application_load_balancer;fillColor=#F58534;gradientColor=none;" parent="9Nv_gBv1O7w1vaAWKcTw-6" vertex="1">
          <mxGeometry x="70" y="38.5" width="40" height="43" as="geometry" />
        </mxCell>
        <mxCell id="Adose-PHV-qRc2NY3zOG-5" value="CIDR = 10.0.2.0/24" style="text;html=1;align=center;verticalAlign=middle;resizable=0;points=[];autosize=1;strokeColor=none;fillColor=none;" vertex="1" parent="9Nv_gBv1O7w1vaAWKcTw-6">
          <mxGeometry x="-2.5" y="130" width="130" height="30" as="geometry" />
        </mxCell>
        <mxCell id="9Nv_gBv1O7w1vaAWKcTw-7" value="Public subnet" style="points=[[0,0],[0.25,0],[0.5,0],[0.75,0],[1,0],[1,0.25],[1,0.5],[1,0.75],[1,1],[0.75,1],[0.5,1],[0.25,1],[0,1],[0,0.75],[0,0.5],[0,0.25]];outlineConnect=0;gradientColor=none;html=1;whiteSpace=wrap;fontSize=12;fontStyle=0;container=1;pointerEvents=0;collapsible=0;recursiveResize=0;shape=mxgraph.aws4.group;grIcon=mxgraph.aws4.group_security_group;grStroke=0;strokeColor=#7AA116;fillColor=#F2F6E8;verticalAlign=top;align=left;spacingLeft=30;fontColor=#248814;dashed=0;" parent="9Nv_gBv1O7w1vaAWKcTw-2" vertex="1">
          <mxGeometry x="360" y="40" width="127.5" height="160" as="geometry" />
        </mxCell>
        <mxCell id="9Nv_gBv1O7w1vaAWKcTw-9" value="Nat&amp;nbsp;&lt;div&gt;Gatway&lt;/div&gt;" style="sketch=0;outlineConnect=0;fontColor=#232F3E;gradientColor=none;fillColor=#8C4FFF;strokeColor=none;dashed=0;verticalLabelPosition=bottom;verticalAlign=top;align=center;html=1;fontSize=12;fontStyle=0;aspect=fixed;pointerEvents=1;shape=mxgraph.aws4.nat_gateway;" parent="9Nv_gBv1O7w1vaAWKcTw-7" vertex="1">
          <mxGeometry x="14" y="40" width="40" height="40" as="geometry" />
        </mxCell>
        <mxCell id="9Nv_gBv1O7w1vaAWKcTw-34" value="LB" style="outlineConnect=0;dashed=0;verticalLabelPosition=bottom;verticalAlign=top;align=center;html=1;shape=mxgraph.aws3.application_load_balancer;fillColor=#F58534;gradientColor=none;" parent="9Nv_gBv1O7w1vaAWKcTw-7" vertex="1">
          <mxGeometry x="70" y="38.5" width="40" height="43" as="geometry" />
        </mxCell>
        <mxCell id="Adose-PHV-qRc2NY3zOG-6" value="CIDR = 10.0.3.0/24" style="text;html=1;align=center;verticalAlign=middle;resizable=0;points=[];autosize=1;strokeColor=none;fillColor=none;" vertex="1" parent="9Nv_gBv1O7w1vaAWKcTw-7">
          <mxGeometry x="-2.5" y="130" width="130" height="30" as="geometry" />
        </mxCell>
        <mxCell id="9Nv_gBv1O7w1vaAWKcTw-15" value="EC2" style="outlineConnect=0;dashed=0;verticalLabelPosition=bottom;verticalAlign=top;align=center;html=1;shape=mxgraph.aws3.ec2;fillColor=#F58534;gradientColor=none;" parent="9Nv_gBv1O7w1vaAWKcTw-2" vertex="1">
          <mxGeometry x="75.87" y="281.75" width="44.12" height="58.25" as="geometry" />
        </mxCell>
        <mxCell id="9Nv_gBv1O7w1vaAWKcTw-16" value="EC2" style="outlineConnect=0;dashed=0;verticalLabelPosition=bottom;verticalAlign=top;align=center;html=1;shape=mxgraph.aws3.ec2;fillColor=#F58534;gradientColor=none;" parent="9Nv_gBv1O7w1vaAWKcTw-2" vertex="1">
          <mxGeometry x="235.86" y="281.75" width="44.13" height="58.25" as="geometry" />
        </mxCell>
        <mxCell id="9Nv_gBv1O7w1vaAWKcTw-17" value="EC2" style="outlineConnect=0;dashed=0;verticalLabelPosition=bottom;verticalAlign=top;align=center;html=1;shape=mxgraph.aws3.ec2;fillColor=#F58534;gradientColor=none;" parent="9Nv_gBv1O7w1vaAWKcTw-2" vertex="1">
          <mxGeometry x="395.86" y="281.75" width="48.25" height="56.5" as="geometry" />
        </mxCell>
        <mxCell id="9Nv_gBv1O7w1vaAWKcTw-58" value="" style="edgeStyle=orthogonalEdgeStyle;rounded=0;orthogonalLoop=1;jettySize=auto;html=1;entryX=0.3;entryY=0.125;entryDx=0;entryDy=0;entryPerimeter=0;" parent="9Nv_gBv1O7w1vaAWKcTw-2" source="9Nv_gBv1O7w1vaAWKcTw-33" edge="1">
          <mxGeometry relative="1" as="geometry">
            <mxPoint x="180" y="280" as="targetPoint" />
            <Array as="points">
              <mxPoint x="340" y="100" />
              <mxPoint x="340" y="220" />
              <mxPoint x="180" y="220" />
            </Array>
          </mxGeometry>
        </mxCell>
        <mxCell id="9Nv_gBv1O7w1vaAWKcTw-64" value="" style="edgeStyle=orthogonalEdgeStyle;rounded=0;orthogonalLoop=1;jettySize=auto;html=1;" parent="9Nv_gBv1O7w1vaAWKcTw-2" source="9Nv_gBv1O7w1vaAWKcTw-34" edge="1">
          <mxGeometry relative="1" as="geometry">
            <mxPoint x="180" y="280" as="targetPoint" />
            <Array as="points">
              <mxPoint x="490" y="100" />
              <mxPoint x="490" y="220" />
              <mxPoint x="180" y="220" />
              <mxPoint x="180" y="280" />
            </Array>
          </mxGeometry>
        </mxCell>
        <mxCell id="Adose-PHV-qRc2NY3zOG-2" value="" style="edgeStyle=orthogonalEdgeStyle;rounded=0;orthogonalLoop=1;jettySize=auto;html=1;" edge="1" parent="9Nv_gBv1O7w1vaAWKcTw-2" source="9Nv_gBv1O7w1vaAWKcTw-32">
          <mxGeometry relative="1" as="geometry">
            <mxPoint x="180" y="280" as="targetPoint" />
            <Array as="points">
              <mxPoint x="180" y="100" />
            </Array>
          </mxGeometry>
        </mxCell>
        <mxCell id="9Nv_gBv1O7w1vaAWKcTw-3" value="" style="outlineConnect=0;dashed=0;verticalLabelPosition=bottom;verticalAlign=top;align=center;html=1;shape=mxgraph.aws3.internet_gateway;fillColor=#F58534;gradientColor=none;" parent="9Nv_gBv1O7w1vaAWKcTw-1" vertex="1">
          <mxGeometry x="540" y="360" width="40" height="40" as="geometry" />
        </mxCell>
        <mxCell id="9Nv_gBv1O7w1vaAWKcTw-29" value="" style="outlineConnect=0;dashed=0;verticalLabelPosition=bottom;verticalAlign=top;align=center;html=1;shape=mxgraph.aws3.s3;fillColor=#E05243;gradientColor=none;" parent="9Nv_gBv1O7w1vaAWKcTw-1" vertex="1">
          <mxGeometry x="614.25" y="120" width="50" height="50" as="geometry" />
        </mxCell>
        <mxCell id="9Nv_gBv1O7w1vaAWKcTw-46" value="" style="edgeStyle=orthogonalEdgeStyle;rounded=0;orthogonalLoop=1;jettySize=auto;html=1;" parent="9Nv_gBv1O7w1vaAWKcTw-1" source="9Nv_gBv1O7w1vaAWKcTw-30" target="9Nv_gBv1O7w1vaAWKcTw-29" edge="1">
          <mxGeometry relative="1" as="geometry" />
        </mxCell>
        <mxCell id="9Nv_gBv1O7w1vaAWKcTw-52" value="" style="edgeStyle=orthogonalEdgeStyle;rounded=0;orthogonalLoop=1;jettySize=auto;html=1;exitX=0.5;exitY=1;exitDx=0;exitDy=0;exitPerimeter=0;" parent="9Nv_gBv1O7w1vaAWKcTw-1" source="9Nv_gBv1O7w1vaAWKcTw-30" target="9Nv_gBv1O7w1vaAWKcTw-33" edge="1">
          <mxGeometry relative="1" as="geometry">
            <Array as="points">
              <mxPoint x="330" y="120" />
              <mxPoint x="330" y="120" />
            </Array>
          </mxGeometry>
        </mxCell>
        <mxCell id="9Nv_gBv1O7w1vaAWKcTw-30" value="" style="outlineConnect=0;dashed=0;verticalLabelPosition=bottom;verticalAlign=top;align=center;html=1;shape=mxgraph.aws3.cloudfront;fillColor=#F58536;gradientColor=none;" parent="9Nv_gBv1O7w1vaAWKcTw-1" vertex="1">
          <mxGeometry x="300" y="30" width="60" height="70" as="geometry" />
        </mxCell>
        <mxCell id="9Nv_gBv1O7w1vaAWKcTw-35" value="" style="outlineConnect=0;dashed=0;verticalLabelPosition=bottom;verticalAlign=top;align=center;html=1;shape=mxgraph.aws3.iam;fillColor=#759C3E;gradientColor=none;" parent="9Nv_gBv1O7w1vaAWKcTw-1" vertex="1">
          <mxGeometry x="664.25" y="527.5" width="30" height="60" as="geometry" />
        </mxCell>
        <mxCell id="9Nv_gBv1O7w1vaAWKcTw-66" value="" style="edgeStyle=orthogonalEdgeStyle;rounded=0;orthogonalLoop=1;jettySize=auto;html=1;entryX=0.7;entryY=0.125;entryDx=0;entryDy=0;entryPerimeter=0;" parent="9Nv_gBv1O7w1vaAWKcTw-1" source="9Nv_gBv1O7w1vaAWKcTw-36" edge="1">
          <mxGeometry relative="1" as="geometry">
            <Array as="points">
              <mxPoint x="380" y="350" />
            </Array>
            <mxPoint x="380" y="400" as="targetPoint" />
          </mxGeometry>
        </mxCell>
        <mxCell id="9Nv_gBv1O7w1vaAWKcTw-36" value="" style="outlineConnect=0;dashed=0;verticalLabelPosition=bottom;verticalAlign=top;align=center;html=1;shape=mxgraph.aws3.cognito;fillColor=#AD688B;gradientColor=none;" parent="9Nv_gBv1O7w1vaAWKcTw-1" vertex="1">
          <mxGeometry x="618.5" y="320" width="58.5" height="63" as="geometry" />
        </mxCell>
        <mxCell id="9Nv_gBv1O7w1vaAWKcTw-37" value="" style="outlineConnect=0;dashed=0;verticalLabelPosition=bottom;verticalAlign=top;align=center;html=1;shape=mxgraph.aws3.cloudwatch;fillColor=#759C3E;gradientColor=none;" parent="9Nv_gBv1O7w1vaAWKcTw-1" vertex="1">
          <mxGeometry x="580" y="530" width="50" height="55" as="geometry" />
        </mxCell>
        <mxCell id="9Nv_gBv1O7w1vaAWKcTw-38" value="" style="sketch=0;points=[[0,0,0],[0.25,0,0],[0.5,0,0],[0.75,0,0],[1,0,0],[0,1,0],[0.25,1,0],[0.5,1,0],[0.75,1,0],[1,1,0],[0,0.25,0],[0,0.5,0],[0,0.75,0],[1,0.25,0],[1,0.5,0],[1,0.75,0]];outlineConnect=0;fontColor=#232F3E;fillColor=#7AA116;strokeColor=#ffffff;dashed=0;verticalLabelPosition=bottom;verticalAlign=top;align=center;html=1;fontSize=12;fontStyle=0;aspect=fixed;shape=mxgraph.aws4.resourceIcon;resIcon=mxgraph.aws4.budgets_2;" parent="9Nv_gBv1O7w1vaAWKcTw-1" vertex="1">
          <mxGeometry x="618.5" y="610" width="50" height="50" as="geometry" />
        </mxCell>
        <mxCell id="9Nv_gBv1O7w1vaAWKcTw-53" value="" style="edgeStyle=orthogonalEdgeStyle;rounded=0;orthogonalLoop=1;jettySize=auto;html=1;exitX=0.5;exitY=1;exitDx=0;exitDy=0;exitPerimeter=0;" parent="9Nv_gBv1O7w1vaAWKcTw-1" source="9Nv_gBv1O7w1vaAWKcTw-30" target="9Nv_gBv1O7w1vaAWKcTw-34" edge="1">
          <mxGeometry relative="1" as="geometry">
            <mxPoint x="300" y="110" as="sourcePoint" />
            <mxPoint x="340" y="209" as="targetPoint" />
            <Array as="points">
              <mxPoint x="330" y="140" />
              <mxPoint x="490" y="140" />
            </Array>
          </mxGeometry>
        </mxCell>
        <mxCell id="9Nv_gBv1O7w1vaAWKcTw-54" value="" style="edgeStyle=orthogonalEdgeStyle;rounded=0;orthogonalLoop=1;jettySize=auto;html=1;entryX=0.5;entryY=0;entryDx=0;entryDy=0;entryPerimeter=0;" parent="9Nv_gBv1O7w1vaAWKcTw-1" source="9Nv_gBv1O7w1vaAWKcTw-30" target="9Nv_gBv1O7w1vaAWKcTw-32" edge="1">
          <mxGeometry relative="1" as="geometry">
            <mxPoint x="300" y="110" as="sourcePoint" />
            <mxPoint x="500" y="209" as="targetPoint" />
            <Array as="points">
              <mxPoint x="330" y="140" />
              <mxPoint x="170" y="140" />
            </Array>
          </mxGeometry>
        </mxCell>
        <mxCell id="9Nv_gBv1O7w1vaAWKcTw-42" value="" style="edgeStyle=orthogonalEdgeStyle;rounded=0;orthogonalLoop=1;jettySize=auto;html=1;" parent="1" source="9Nv_gBv1O7w1vaAWKcTw-31" target="9Nv_gBv1O7w1vaAWKcTw-30" edge="1">
          <mxGeometry relative="1" as="geometry" />
        </mxCell>
        <mxCell id="9Nv_gBv1O7w1vaAWKcTw-31" value="Actor" style="shape=umlActor;verticalLabelPosition=bottom;verticalAlign=top;html=1;outlineConnect=0;" parent="1" vertex="1">
          <mxGeometry x="570" y="80" width="30" height="60" as="geometry" />
        </mxCell>
        <mxCell id="Adose-PHV-qRc2NY3zOG-3" value="" style="rounded=1;arcSize=10;dashed=1;strokeColor=#ff0000;fillColor=none;gradientColor=none;dashPattern=8 4;strokeWidth=2;" vertex="1" parent="1">
          <mxGeometry x="140" y="550" width="410" height="100" as="geometry" />
        </mxCell>
      </root>
    </mxGraphModel>
  </diagram>
</mxfile>
